<svg viewBox="0 0 300 300" xmlns="http://www.w3.org/2000/svg"><path d="M239.2 226.4v-50.6c0-9.4-7.6-17-17-17v-17.2c4.7 0 8.5-3.8 8.5-8.5v-25.5c0-4.7-3.8-8.5-8.5-8.5V56.6c0-4.7-3.8-8.5-8.5-8.5H86.3c-4.7 0-8.5 3.8-8.5 8.5V99c-4.7 0-8.5 3.8-8.5 8.5V133c0 4.7 3.8 8.5 8.5 8.5v17.2c-9.3 0-17 7.7-17 17v67.1c0 5 4.1 9 9 9h24.4c5 0 9-4.1 9-9v-16.4h93.4v16.4c0 5 4.1 9 9 9H230c5 0 9-4.1 9-9l.2-16.4zM86.3 196.7c-7 0-12.7-5.7-12.7-12.7 0-7 5.7-12.7 12.7-12.7 7 0 12.7 5.7 12.7 12.7 0 7-5.7 12.7-12.7 12.7zm101.9 9.2c0 6.6-5.4 12-12 12h-52.4c-6.6 0-12-5.4-12-12V179c0-6.6 5.4-12 12-12h52.4c6.6 0 12 5.4 12 12v26.9zm17-67.9c0 6.6-5.4 12-12 12h-86.4c-6.6 0-12-5.4-12-12v-26.9c0-6.6 5.4-12 12-12h86.4c6.6 0 12 5.4 12 12V138zm8.5 58.7c-7 0-12.7-5.7-12.7-12.7 0-7 5.7-12.7 12.7-12.7s12.7 5.7 12.7 12.7c0 7-5.7 12.7-12.7 12.7z"><!----></path></svg>