<svg viewBox="0 0 300 300" xmlns="http://www.w3.org/2000/svg"><path d="M150 101.9c-26.5 0-48.1 21.6-48.1 48.1 0 25.4 19.8 46.3 44.9 48l-2.4-24.2c-10.8-2.6-18.9-12.3-18.9-23.9 0-13.5 11-24.5 24.5-24.5s24.5 11 24.5 24.5c0 .4 0 .7-.1 1.1l22.7 8.7c.7-3.2 1-6.4 1-9.8 0-26.4-21.6-48-48.1-48z"><!----></path><path d="M78.4 150c0-39.5 32.1-71.6 71.6-71.6 39.5 0 71.6 32.1 71.6 71.6 0 6.3-.8 12.4-2.4 18.2l22.1 8.5c2.5-8.5 3.8-17.4 3.8-26.7 0-52.5-42.7-95.2-95.2-95.2S54.7 97.5 54.7 150s42.7 95.2 95.2 95.2h1.4l-2.3-23.6c-39-.5-70.6-32.4-70.6-71.6z"><!----></path><path d="M150 150l120.1 45.9-67.5 22.9-40 59.2L150 150z"><!----></path></svg>