<svg viewBox="0 0 300 300" xmlns="http://www.w3.org/2000/svg"><path d="M220 65.1c-17.9-17.9-42.7-29-70-29-27.4 0-52.1 11.1-70 29s-29 42.7-29 70.1c0 27.4 11.1 52.1 29 70.1 17.9 17.9 70 58.7 70 58.7s52.1-40.8 70-58.7c17.9-17.9 29-42.7 29-70 .1-27.5-11-52.3-29-70.2zm-70 149.3c-43.8 0-79.3-35.5-79.3-79.3s35.5-79.3 79.3-79.3 79.3 35.5 79.3 79.3-35.5 79.3-79.3 79.3z"><!----></path><path d="M197.2 122.3l-3.4-3.4c-1-1-2.2-3-2.7-4.3l-6.3-19c-1.8-5.5-8-10-13.8-10h-42c-5.8 0-12 4.5-13.8 10l-6.3 19c-.5 1.4-1.7 3.3-2.7 4.3l-3.4 3.4c-2.9 2.9-5.2 9.9-5.2 15.7v31.4c0 2.9 2.3 5.2 5.2 5.2h10.5c2.9 0 5.2-2.3 5.2-5.2v-5.2h63v5.2c0 2.9 2.3 5.2 5.2 5.2h10.5c2.9 0 5.2-2.3 5.2-5.2v-31.5c.1-5.6-2.3-12.7-5.2-15.6zm-86.5 26.3c-4.3 0-7.9-3.5-7.9-7.9s3.5-7.9 7.9-7.9c4.3 0 7.9 3.5 7.9 7.9s-3.6 7.9-7.9 7.9zm57.7 5.2h-36.7c-1.4 0-2.6-1.2-2.6-2.6s1.2-2.6 2.6-2.6h36.7c1.4 0 2.6 1.2 2.6 2.6s-1.2 2.6-2.6 2.6zm-52.2-36.7c-1.4 0-2.3-1.1-1.8-2.5l5.8-17.4c1.1-3.3 5.3-6.4 8.8-6.4h42c3.5 0 7.7 3 8.8 6.4l5.8 17.4c.5 1.4-.3 2.5-1.8 2.5h-67.6zm73.1 31.5c-4.3 0-7.9-3.5-7.9-7.9s3.5-7.9 7.9-7.9c4.3 0 7.9 3.5 7.9 7.9s-3.5 7.9-7.9 7.9z"><!----></path></svg>