<svg viewBox="0 0 300 300" xmlns="http://www.w3.org/2000/svg"><path d="M260.2 108.4l-43-69.4-42.9 69.4 29-9.7v102.4s.3 13.8 14 13.8c14.2 0 13.9-13.8 13.9-13.8V98.6l29 9.8zM229.8 261s13.8-.3 13.8-14c0-14.2-13.8-13.9-13.8-13.9H53.7s-13.8.3-13.8 14c0 14.2 13.8 13.9 13.8 13.9h176.1zm-49.2-123.3s-.3-13.8-14-13.8c-14.2 0-13.9 13.8-13.9 13.8v63.5s.3 13.8 14 13.8c14.2 0 13.9-13.8 13.9-13.8v-63.5zM79.3 156.4s-.3-13.8-14-13.8c-14.2 0-13.9 13.8-13.9 13.8v44.7s.3 13.8 14 13.8c14.2 0 13.9-13.8 13.9-13.8v-44.7zm50.6 10s-.3-13.8-14-13.8c-14.2 0-13.9 13.8-13.9 13.8v34.8s.3 13.8 14 13.8c14.2 0 13.9-13.8 13.9-13.8v-34.8z"><!----></path></svg>